<?xml version="1.0" encoding="iso-8859-1"?>
<!-- Uploaded to: SVG Repo, www.svgrepo.com, Generator: SVG Repo Mixer Tools -->
<svg fill="#000000" height="800px" width="800px" version="1.1" id="Layer_1" xmlns="http://www.w3.org/2000/svg" xmlns:xlink="http://www.w3.org/1999/xlink" 
	 viewBox="0 0 512 512" xml:space="preserve">
<g>
	<g>
		<path d="M229.311,32.681H84.425c-4.512,0-8.17,3.658-8.17,8.17s3.658,8.17,8.17,8.17h144.885c4.512,0,8.17-3.658,8.17-8.17
			S233.823,32.681,229.311,32.681z"/>
	</g>
</g>
<g>
	<g>
		<circle cx="261.992" cy="40.851" r="8.17"/>
	</g>
</g>
<g>
	<g>
		<path d="M229.311,151.149H84.425c-4.512,0-8.17,3.658-8.17,8.17s3.658,8.17,8.17,8.17h144.885c4.512,0,8.17-3.658,8.17-8.17
			S233.823,151.149,229.311,151.149z"/>
	</g>
</g>
<g>
	<g>
		<circle cx="261.992" cy="159.32" r="8.17"/>
	</g>
</g>
<g>
	<g>
		<path d="M413.958,77.617V24.511C413.958,10.996,402.962,0,389.447,0H68.085C54.569,0,43.574,10.996,43.574,24.511v53.107
			c0,10.651,6.831,19.733,16.34,23.105v19.151c-9.509,3.373-16.34,12.455-16.34,23.105v53.107c0,10.652,6.831,19.733,16.34,23.105
			v19.151c-9.509,3.373-16.34,12.454-16.34,23.105v53.107c0,10.652,6.831,19.733,16.34,23.105v19.151
			c-9.509,3.373-16.34,12.454-16.34,23.105v53.107c0,13.516,10.995,24.511,24.511,24.511h152.518c4.512,0,8.17-3.658,8.17-8.17
			s-3.658-8.17-8.17-8.17H68.085c-4.506,0-8.17-3.665-8.17-8.17v-53.107c0-4.506,3.665-8.17,8.17-8.17h145.113
			c4.512,0,8.17-3.658,8.17-8.17s-3.658-8.17-8.17-8.17H76.255v-16.34h148.756c4.512,0,8.17-3.658,8.17-8.17
			s-3.658-8.171-8.17-8.171H68.085c-4.506,0-8.17-3.665-8.17-8.17v-53.107c0-4.503,3.662-8.167,8.165-8.17
			c0.016,0,321.357,0,321.357,0c4.519,0.003,8.181,3.667,8.181,8.17v2.729c0,4.512,3.658,8.17,8.17,8.17s8.17-3.658,8.17-8.17
			v-2.729c0-10.652-6.831-19.733-16.34-23.105V219.19c9.509-3.373,16.34-12.454,16.34-23.105v-53.107
			c0-10.651-6.831-19.733-16.34-23.105v-19.15C407.126,97.35,413.958,88.268,413.958,77.617z M381.277,236.937H76.255v-16.341
			h305.022V236.937z M397.617,196.086c0,4.506-3.665,8.17-8.17,8.17H68.085c-4.506,0-8.17-3.665-8.17-8.17v-53.107
			c0-4.505,3.665-8.17,8.17-8.17h321.362c4.506,0,8.17,3.666,8.17,8.17V196.086z M76.255,118.468v-16.34h305.022v16.34H76.255z
			 M389.447,85.787H68.085c-4.506,0-8.17-3.666-8.17-8.17V24.511c0-4.505,3.665-8.17,8.17-8.17h321.362
			c4.506,0,8.17,3.666,8.17,8.17v53.107C397.617,82.122,393.953,85.787,389.447,85.787z"/>
	</g>
</g>
<g>
	<g>
		<path d="M229.311,269.618H84.425c-4.512,0-8.17,3.658-8.17,8.17s3.658,8.17,8.17,8.17h144.885c4.512,0,8.17-3.658,8.17-8.17
			S233.823,269.618,229.311,269.618z"/>
	</g>
</g>
<g>
	<g>
		<circle cx="261.992" cy="277.788" r="8.17"/>
	</g>
</g>
<g>
	<g>
		<path d="M209.702,388.085H84.425c-4.512,0-8.17,3.658-8.17,8.17s3.658,8.17,8.17,8.17h125.277c4.512,0,8.17-3.658,8.17-8.17
			S214.214,388.085,209.702,388.085z"/>
	</g>
</g>
<g>
	<g>
		<path d="M386.724,362.859v-14.264c0-19.252-15.221-33.77-35.404-33.77c-19.521,0-35.404,15.883-35.404,35.404v12.63
			c-12.498,1.107-22.332,11.628-22.332,24.408v50.111c0,13.516,10.995,24.511,24.511,24.511h66.451
			c13.516,0,24.511-10.995,24.511-24.511v-50.111C409.056,374.487,399.221,363.966,386.724,362.859z M332.256,350.229
			c0-10.511,8.552-19.064,19.064-19.064c11.046,0,19.064,7.33,19.064,17.43v14.162h-38.128V350.229z M392.715,437.379
			c0,4.506-3.665,8.17-8.17,8.17h-66.451c-4.506,0-8.17-3.665-8.17-8.17v-50.111c0-4.506,3.665-8.17,8.17-8.17h66.451
			c4.506,0,8.17,3.665,8.17,8.17V437.379z"/>
	</g>
</g>
<g>
	<g>
		<path d="M351.319,395.983c-4.512,0-8.17,3.658-8.17,8.17v16.34c0,4.512,3.658,8.17,8.17,8.17s8.17-3.658,8.17-8.17v-16.34
			C359.49,399.641,355.832,395.983,351.319,395.983z"/>
	</g>
</g>
<g>
	<g>
		<path d="M351.319,277.787c-64.573,0-117.107,52.534-117.107,117.107S286.746,512,351.319,512s117.107-52.534,117.107-117.107
			S415.893,277.787,351.319,277.787z M351.319,495.66c-55.563,0-100.766-45.203-100.766-100.766
			c0-55.563,45.203-100.766,100.766-100.766c55.563,0,100.766,45.203,100.766,100.766
			C452.086,450.456,406.882,495.66,351.319,495.66z"/>
	</g>
</g>
</svg>